<?xml version="1.0" encoding="UTF-8" standalone="no"?>
<svg
   xmlns:dc="http://purl.org/dc/elements/1.1/"
   xmlns:cc="http://creativecommons.org/ns#"
   xmlns:rdf="http://www.w3.org/1999/02/22-rdf-syntax-ns#"
   xmlns:svg="http://www.w3.org/2000/svg"
   xmlns="http://www.w3.org/2000/svg"
   version="1.1"
   id="svg2"
   viewBox="0 0 65.894159 16.162515"
   height="4.5614209mm"
   width="18.596796mm">
  <defs
     id="defs4" />
  <metadata
     id="metadata7">
    <rdf:RDF>
      <cc:Work
         rdf:about="">
        <dc:format>image/svg+xml</dc:format>
        <dc:type
           rdf:resource="http://purl.org/dc/dcmitype/StillImage" />
        <dc:title></dc:title>
      </cc:Work>
    </rdf:RDF>
  </metadata>
  <g
     transform="translate(-208.82383,-369.9049)"
     id="layer1">
    <path
       d="m 212.34848,385.3166 q 0,0.43797 -0.58397,0.43797 l -2.35671,0 q -0.58397,0 -0.58397,-0.43797 0,-0.44841 0.58397,-0.44841 l 0.74038,0 0,-10.44879 -0.74038,0 q -0.58397,0 -0.58397,-0.4484 0,-0.43798 0.58397,-0.43798 l 2.35671,0 q 0.58397,0 0.58397,0.43798 0,0.4484 -0.58397,0.4484 l -0.74038,0 0,10.44879 0.74038,0 q 0.58397,0 0.58397,0.44841 z"
       style="font-style:normal;font-variant:normal;font-weight:normal;font-stretch:normal;font-size:medium;line-height:125%;font-family:'Estrangelo Antioch';-inkscape-font-specification:'Estrangelo Antioch';letter-spacing:0px;word-spacing:0px;fill:#000000;fill-opacity:1;stroke:none;stroke-width:1px;stroke-linecap:butt;stroke-linejoin:miter;stroke-opacity:1"
       id="path4141" />
    <path
       d="m 226.17593,379.65422 q 0,2.50271 -1.38692,4.35888 -1.53291,2.05431 -3.95219,2.05431 -2.41928,0 -3.95219,-2.05431 -1.38691,-1.8666 -1.38691,-4.35888 0,-2.49227 1.38691,-4.35888 1.53291,-2.0543 3.95219,-2.0543 2.41928,0 3.94176,2.0543 1.39735,1.86661 1.39735,4.35888 z m -0.88638,0 q 0,-2.10644 -1.14707,-3.7332 -1.28264,-1.80403 -3.30566,-1.80403 -2.02302,0 -3.30565,1.81446 -1.15751,1.61633 -1.15751,3.72277 0,2.09602 1.15751,3.72278 1.28263,1.81446 3.30565,1.81446 2.02302,0 3.30566,-1.80403 1.14707,-1.61633 1.14707,-3.73321 z"
       style="font-style:normal;font-variant:normal;font-weight:normal;font-stretch:normal;font-size:medium;line-height:125%;font-family:'Estrangelo Antioch';-inkscape-font-specification:'Estrangelo Antioch';letter-spacing:0px;word-spacing:0px;fill:#000000;fill-opacity:1;stroke:none;stroke-width:1px;stroke-linecap:butt;stroke-linejoin:miter;stroke-opacity:1"
       id="path4143" />
    <path
       d="m 239.117,375.17021 c 0,0.38931 -0.14599,0.58396 -0.43797,0.58396 -0.30589,0 -0.45535,-0.19465 -0.4484,-0.58396 l 0.0104,-0.74038 -3.17684,0 0,10.44879 0.33002,0 c 0.38931,0 0.58396,0.14947 0.58396,0.4484 0,0.29199 -0.19465,0.43798 -0.58396,0.43798 l -2.35672,0 c -0.38931,0 -0.58396,-0.14599 -0.58396,-0.43798 0,-0.29893 0.19465,-0.4484 0.58396,-0.4484 l 0.33002,0 -0.0104,-10.44879 -3.17684,0 0.0104,0.74038 c 0.007,0.38931 -0.14253,0.58396 -0.4484,0.58396 -0.29198,0 -0.43797,-0.19465 -0.43797,-0.58396 l 0,-1.61633 9.81269,0 0,1.61633 z"
       style="font-style:normal;font-variant:normal;font-weight:normal;font-stretch:normal;font-size:medium;line-height:125%;font-family:'Estrangelo Antioch';-inkscape-font-specification:'Estrangelo Antioch';letter-spacing:0px;word-spacing:0px;fill:#a05a2c;fill-opacity:1;stroke:none;stroke-width:1px;stroke-linecap:butt;stroke-linejoin:miter;stroke-opacity:1"
       id="path4145" />
    <path
       d="m 250.69202,378.90341 q 0,0.45883 -0.45883,0.45883 -0.15642,0 -0.65696,-0.4484 -0.50054,-0.45883 -0.95937,-0.45883 -0.84467,0 -2.25244,1.05322 -0.53182,0.39626 -1.92917,1.64762 l 0,3.72277 q 0.87595,0 0.79252,-0.0104 0.53183,0.0626 0.53183,0.44841 0,0.43797 -0.58396,0.43797 l -2.34629,0 q -0.59439,0 -0.59439,-0.43797 0,-0.38584 0.53182,-0.44841 -0.0834,0.0104 0.79252,0.0104 l 0,-6.1942 q -0.86551,0 -0.80295,0.0104 -0.52139,-0.0626 -0.52139,-0.45883 0,-0.43797 0.58396,-0.43797 l 1.61633,0 0,2.21072 q 1.26178,-1.13664 1.88746,-1.56419 1.25135,-0.86552 2.24201,-0.86552 0.53182,0 1.29306,0.41712 0.83424,0.45883 0.83424,0.90723 z"
       style="font-style:normal;font-variant:normal;font-weight:normal;font-stretch:normal;font-size:medium;line-height:125%;font-family:'Estrangelo Antioch';-inkscape-font-specification:'Estrangelo Antioch';letter-spacing:0px;word-spacing:0px;fill:#000000;fill-opacity:1;stroke:none;stroke-width:1px;stroke-linecap:butt;stroke-linejoin:miter;stroke-opacity:1"
       id="path4147" />
    <path
       d="m 262.705,384.44065 q 0,0.57353 -1.75189,1.19921 -1.1575,0.40669 -2.36714,0.40669 -1.98131,0 -3.36823,-1.29306 -1.38691,-1.29307 -1.38691,-3.26395 0,-1.80403 1.32435,-3.01367 1.29306,-1.17836 3.10752,-1.17836 1.98131,0 3.21181,1.28264 1.23049,1.28263 1.20964,3.26394 l -8.05037,0 q 0.20856,1.56419 1.28264,2.49228 1.0845,0.91766 2.66955,0.91766 1.95002,0 3.43079,-1.06365 0.19813,-0.14599 0.31284,-0.14599 0.3754,0 0.3754,0.39626 z m -0.81337,-3.38908 q -0.23985,-1.33478 -1.25136,-2.13773 -1.01151,-0.81338 -2.37757,-0.81338 -1.37649,0 -2.37757,0.80295 -1.00108,0.80295 -1.24092,2.14816 l 7.24742,0 z"
       style="font-style:normal;font-variant:normal;font-weight:normal;font-stretch:normal;font-size:medium;line-height:125%;font-family:'Estrangelo Antioch';-inkscape-font-specification:'Estrangelo Antioch';letter-spacing:0px;word-spacing:0px;fill:#000000;fill-opacity:1;stroke:none;stroke-width:1px;stroke-linecap:butt;stroke-linejoin:miter;stroke-opacity:1"
       id="path4149" />
    <path
       d="m 274.71799,384.44065 q 0,0.57353 -1.75189,1.19921 -1.15751,0.40669 -2.36715,0.40669 -1.98131,0 -3.36822,-1.29306 -1.38692,-1.29307 -1.38692,-3.26395 0,-1.80403 1.32435,-3.01367 1.29307,-1.17836 3.10753,-1.17836 1.98131,0 3.2118,1.28264 1.2305,1.28263 1.20964,3.26394 l -8.05037,0 q 0.20856,1.56419 1.28264,2.49228 1.08451,0.91766 2.66955,0.91766 1.95003,0 3.4308,-1.06365 0.19813,-0.14599 0.31283,-0.14599 0.37541,0 0.37541,0.39626 z m -0.81338,-3.38908 q -0.23984,-1.33478 -1.25135,-2.13773 -1.01151,-0.81338 -2.37757,-0.81338 -1.37649,0 -2.37757,0.80295 -1.00109,0.80295 -1.24093,2.14816 l 7.24742,0 z"
       style="font-style:normal;font-variant:normal;font-weight:normal;font-stretch:normal;font-size:medium;line-height:125%;font-family:'Estrangelo Antioch';-inkscape-font-specification:'Estrangelo Antioch';letter-spacing:0px;word-spacing:0px;fill:#000000;fill-opacity:1;stroke:none;stroke-width:1px;stroke-linecap:butt;stroke-linejoin:miter;stroke-opacity:1"
       id="path4151" />
    <path
       id="path4159"
       d="m 232.14568,374.13947 -0.94702,1.86247"
       style="fill:#803300;fill-rule:evenodd;stroke:#a05a2c;stroke-width:1px;stroke-linecap:round;stroke-linejoin:miter;stroke-opacity:1" />
    <path
       id="path4163"
       d="m 237.76465,373.88693 1.23113,-2.27284"
       style="fill:none;fill-rule:evenodd;stroke:#a05a2c;stroke-width:1px;stroke-linecap:round;stroke-linejoin:miter;stroke-opacity:1" />
    <path
       id="path4165"
       d="m 229.74657,373.7291 -1.51523,-1.95718"
       style="fill:none;fill-rule:evenodd;stroke:#a05a2c;stroke-width:1px;stroke-linecap:round;stroke-linejoin:miter;stroke-opacity:1" />
    <path
       id="path4167"
       d="m 238.83794,375.49686 1.4521,1.04172"
       style="fill:none;fill-rule:evenodd;stroke:#a05a2c;stroke-width:1px;stroke-linecap:round;stroke-linejoin:miter;stroke-opacity:1" />
    <path
       id="path4169"
       d="m 238.83794,375.62313 -1.98873,1.29426"
       style="fill:none;fill-rule:evenodd;stroke:#a05a2c;stroke-width:1px;stroke-linecap:round;stroke-linejoin:miter;stroke-opacity:1" />
    <path
       id="path4171-8"
       d="m 228.20588,371.99368 c 0,0 -0.97101,0.63562 -1.6246,0.32709 -0.65359,-0.30852 -1.26108,-2.36398 -1.26108,-2.36398 0,0 1.66977,0.0464 2.26574,0.47492 0.59597,0.42851 0.61994,1.56197 0.61994,1.56197 z"
       style="fill:#8dd35f;fill-opacity:1;fill-rule:evenodd;stroke:#000000;stroke-width:0.1;stroke-linecap:butt;stroke-linejoin:miter;stroke-miterlimit:4;stroke-dasharray:none;stroke-opacity:1" />
    <path
       id="path4171-8-2"
       d="m 238.96969,371.93825 c 0,0 -0.12556,-1.15374 0.44605,-1.59604 0.5716,-0.44231 2.67884,-0.0505 2.67884,-0.0505 0,0 -0.79935,1.46674 -1.45171,1.80324 -0.65236,0.33649 -1.67318,-0.15669 -1.67318,-0.15669 z"
       style="fill:#8dd35f;fill-opacity:1;fill-rule:evenodd;stroke:#000000;stroke-width:0.1;stroke-linecap:butt;stroke-linejoin:miter;stroke-miterlimit:4;stroke-dasharray:none;stroke-opacity:1" />
    <path
       id="path4171-8-9"
       d="m 238.93184,372.33268 c 0,0 -0.97101,0.63562 -1.6246,0.32709 -0.65359,-0.30852 -1.26108,-2.36398 -1.26108,-2.36398 0,0 1.66977,0.0464 2.26574,0.47492 0.59597,0.42851 0.61994,1.56197 0.61994,1.56197 z"
       style="fill:#8dd35f;fill-opacity:1;fill-rule:evenodd;stroke:#000000;stroke-width:0.1;stroke-linecap:butt;stroke-linejoin:miter;stroke-miterlimit:4;stroke-dasharray:none;stroke-opacity:1" />
    <path
       id="path4171-8-4"
       d="m 239.91413,376.87151 c 0,0 -0.29821,-1.12158 0.20011,-1.64507 0.49831,-0.5235 2.64054,-0.45416 2.64054,-0.45416 0,0 -0.56887,1.57057 -1.16299,2.00165 -0.59411,0.43108 -1.67766,0.0976 -1.67766,0.0976 z"
       style="fill:#8dd35f;fill-opacity:1;fill-rule:evenodd;stroke:#000000;stroke-width:0.1;stroke-linecap:butt;stroke-linejoin:miter;stroke-miterlimit:4;stroke-dasharray:none;stroke-opacity:1" />
    <path
       id="path4171-8-1"
       d="m 237.1381,377.01107 c 0,0 -1.13743,0.23048 -1.63013,-0.29831 -0.4927,-0.52878 -0.29514,-2.66301 -0.29514,-2.66301 0,0 1.53366,0.66194 1.92837,1.28082 0.39472,0.61887 -0.003,1.6805 -0.003,1.6805 z"
       style="fill:#8dd35f;fill-opacity:1;fill-rule:evenodd;stroke:#000000;stroke-width:0.1;stroke-linecap:butt;stroke-linejoin:miter;stroke-miterlimit:4;stroke-dasharray:none;stroke-opacity:1" />
    <path
       id="path4171-8-0"
       d="m 232.59755,373.91184 c 0,0 -0.3052,-1.1197 0.18985,-1.64629 0.49504,-0.5266 2.63766,-0.47061 2.63766,-0.47061 0,0 -0.55907,1.57408 -1.15049,2.00886 -0.59141,0.43478 -1.67702,0.10804 -1.67702,0.10804 z"
       style="fill:#8dd35f;fill-opacity:1;fill-rule:evenodd;stroke:#000000;stroke-width:0.1;stroke-linecap:butt;stroke-linejoin:miter;stroke-miterlimit:4;stroke-dasharray:none;stroke-opacity:1" />
    <path
       id="path4171-8-08"
       d="m 229.42433,374.46216 c 0,0 0.5916,0.99844 0.25417,1.63759 -0.33741,0.63916 -2.41796,1.1542 -2.41796,1.1542 0,0 0.12096,-1.66603 0.57568,-2.24226 0.45471,-0.57623 1.58811,-0.54953 1.58811,-0.54953 z"
       style="fill:#8dd35f;fill-opacity:1;fill-rule:evenodd;stroke:#000000;stroke-width:0.1;stroke-linecap:butt;stroke-linejoin:miter;stroke-miterlimit:4;stroke-dasharray:none;stroke-opacity:1" />
    <path
       id="path4171-8-3"
       d="m 231.59186,376.36034 c 0,0 -1.08072,0.42299 -1.65715,-0.013 -0.57643,-0.43599 -0.74951,-2.57235 -0.74951,-2.57235 0,0 1.62477,0.38783 2.12018,0.92949 0.49544,0.54163 0.28646,1.65591 0.28646,1.65591 z"
       style="fill:#8dd35f;fill-opacity:1;fill-rule:evenodd;stroke:#000000;stroke-width:0.1;stroke-linecap:butt;stroke-linejoin:miter;stroke-miterlimit:4;stroke-dasharray:none;stroke-opacity:1" />
  </g>
</svg>
