<?xml version="1.0" encoding="UTF-8" standalone="no"?>
<!-- Created with Inkscape (http://www.inkscape.org/) -->

<svg
   xmlns:dc="http://purl.org/dc/elements/1.1/"
   xmlns:cc="http://creativecommons.org/ns#"
   xmlns:rdf="http://www.w3.org/1999/02/22-rdf-syntax-ns#"
   xmlns:svg="http://www.w3.org/2000/svg"
   xmlns="http://www.w3.org/2000/svg"
   xmlns:sodipodi="http://sodipodi.sourceforge.net/DTD/sodipodi-0.dtd"
   xmlns:inkscape="http://www.inkscape.org/namespaces/inkscape"
   id="svg3004"
   version="1.1"
   inkscape:version="0.91 r13725"
   width="138.01851"
   height="61.99049"
   xml:space="preserve"
   sodipodi:docname="tree-logo.svg"><metadata
     id="metadata3010"><rdf:RDF><cc:Work
         rdf:about=""><dc:format>image/svg+xml</dc:format><dc:type
           rdf:resource="http://purl.org/dc/dcmitype/StillImage" /><dc:title></dc:title></cc:Work></rdf:RDF></metadata><defs
     id="defs3008"><clipPath
       clipPathUnits="userSpaceOnUse"
       id="clipPath3018"><path
         d="M 0,600 600,600 600,0 0,0 0,600 Z"
         id="path3020"
         inkscape:connector-curvature="0" /></clipPath></defs><sodipodi:namedview
     pagecolor="#ffffff"
     bordercolor="#666666"
     borderopacity="1"
     objecttolerance="10"
     gridtolerance="10"
     guidetolerance="10"
     inkscape:pageopacity="0"
     inkscape:pageshadow="2"
     inkscape:window-width="1916"
     inkscape:window-height="1053"
     id="namedview3006"
     showgrid="false"
     fit-margin-top="5"
     fit-margin-left="5"
     fit-margin-right="5"
     fit-margin-bottom="5"
     inkscape:zoom="6.3205916"
     inkscape:cx="68.668415"
     inkscape:cy="23.685668"
     inkscape:window-x="1280"
     inkscape:window-y="12"
     inkscape:window-maximized="0"
     inkscape:current-layer="g3012"
     showguides="true"
     inkscape:guide-bbox="true"
     units="ft"><sodipodi:guide
       position="-29.582243,60.959639"
       orientation="1,0"
       id="guide4184" /></sodipodi:namedview><g
     id="g3012"
     inkscape:groupmode="layer"
     inkscape:label="Logo"
     transform="matrix(1.25,0,0,-1.25,-308.89199,413.90671)"><path
       style="opacity:0.93999999;fill:none;fill-opacity:1;fill-rule:nonzero;stroke:#002255;stroke-width:2.4000001;stroke-linecap:round;stroke-linejoin:round;stroke-miterlimit:4;stroke-dasharray:none;stroke-dashoffset:0;stroke-opacity:1"
       id="path4252"
       transform="scale(1,-1)"
       sodipodi:type="arc"
       sodipodi:cx="260.94623"
       sodipodi:cy="-309.22079"
       sodipodi:rx="16.536741"
       sodipodi:ry="16.536741"
       sodipodi:start="4.1641976"
       sodipodi:end="5.2678827"
       sodipodi:open="true"
       d="m 252.3282,-323.33438 a 16.536741,16.536741 0 0 1 17.33889,0.0633" /><path
       style="opacity:0.93999999;fill:none;fill-opacity:1;fill-rule:nonzero;stroke:#002255;stroke-width:2.4000001;stroke-linecap:round;stroke-linejoin:round;stroke-miterlimit:4;stroke-dasharray:none;stroke-dashoffset:0;stroke-opacity:1"
       id="path4252-4"
       transform="scale(1,-1)"
       sodipodi:type="arc"
       sodipodi:cx="261.01981"
       sodipodi:cy="-308.74829"
       sodipodi:rx="12.360455"
       sodipodi:ry="12.360455"
       sodipodi:start="4.1473224"
       sodipodi:end="5.273205"
       sodipodi:open="true"
       d="m 254.40113,-319.18735 a 12.360455,12.360455 0 0 1 13.19292,-0.028" /><path
       style="opacity:0.93999999;fill:none;fill-opacity:1;fill-rule:nonzero;stroke:#002255;stroke-width:2.4000001;stroke-linecap:round;stroke-linejoin:round;stroke-miterlimit:4;stroke-dasharray:none;stroke-dashoffset:0;stroke-opacity:1"
       id="path4252-3"
       transform="scale(1,-1)"
       sodipodi:type="arc"
       sodipodi:cx="261.05441"
       sodipodi:cy="-309.22079"
       sodipodi:rx="7.2006803"
       sodipodi:ry="7.2006803"
       sodipodi:start="4.012483"
       sodipodi:end="5.3917949"
       d="m 256.41613,-314.72861 a 7.2006803,7.2006803 0 0 1 9.16269,-0.0939"
       sodipodi:open="true" /><rect
       style="opacity:0.93999999;fill:#ffb380;fill-opacity:0.78431373;fill-rule:nonzero;stroke:#000000;stroke-width:1.20000005;stroke-linecap:butt;stroke-linejoin:round;stroke-miterlimit:4;stroke-dasharray:none;stroke-dashoffset:0;stroke-opacity:0.78431373"
       id="rect28484"
       width="29.058403"
       height="20.117374"
       x="272.83066"
       y="-306.7934"
       transform="scale(1,-1)"
       ry="0" /><path
       style="fill:none;fill-rule:evenodd;stroke:#000000;stroke-width:1.20000005;stroke-linecap:round;stroke-linejoin:miter;stroke-miterlimit:4;stroke-dasharray:none;stroke-opacity:0.78431373"
       d="m 273.11006,306.65374 c 0,0 13.87727,-11.85197 14.24981,-11.85197 0.37255,0 14.24979,11.85197 14.24979,11.85197"
       id="path28486"
       inkscape:connector-curvature="0"
       sodipodi:nodetypes="csc" /><path
       style="fill:none;fill-rule:evenodd;stroke:#000000;stroke-width:1.20000005;stroke-linecap:round;stroke-linejoin:miter;stroke-miterlimit:4;stroke-dasharray:none;stroke-opacity:0.78431373"
       d="m 282.70307,298.98145 -9.745,-12.07253"
       id="path28488"
       inkscape:connector-curvature="0"
       sodipodi:nodetypes="cc" /><path
       style="fill:none;fill-rule:evenodd;stroke:#000000;stroke-width:1.20000005;stroke-linecap:round;stroke-linejoin:miter;stroke-miterlimit:4;stroke-dasharray:none;stroke-opacity:0.78431373"
       d="m 292.20293,298.98145 9.74501,-12.07253"
       id="path28490"
       inkscape:connector-curvature="0"
       sodipodi:nodetypes="cc" /><path
       sodipodi:nodetypes="cccccccccc"
       inkscape:connector-curvature="0"
       id="path18066"
       d="m 281.37988,301.83495 c 0.80945,1.73105 3.4148,4.81389 6.88709,2.55358 1.92311,1.44959 4.62829,-0.0778 4.05143,-1.98535 2.5764,-0.0765 4.21519,-3.53686 2.65754,-4.33518 1.8168,-2.78861 0.91198,-6.17859 -2.06886,-5.64285 1.08254,-2.40905 -3.05149,-5.85397 -5.39118,-3.15949 -2.90985,-0.0607 -4.71,-0.45056 -5.27723,1.84299 -1.93689,-0.0931 -5.64702,3.46062 -2.09542,6.42217 -1.17721,2.07048 -0.93315,4.19246 1.23663,4.30411 z"
       style="fill:#aa0000;fill-rule:evenodd;stroke:none;stroke-width:1px;stroke-linecap:butt;stroke-linejoin:miter;stroke-opacity:1" /><circle
       r="5.4923949"
       cy="-175.49489"
       cx="373.9613"
       id="circle18068"
       style="display:inline;opacity:1;fill:#800000;fill-opacity:1;fill-rule:nonzero;stroke:#550000;stroke-width:1.60000002;stroke-linecap:round;stroke-linejoin:round;stroke-miterlimit:4;stroke-dasharray:none;stroke-dashoffset:0;stroke-opacity:1;enable-background:new"
       transform="matrix(0.93497223,0.35472092,0.35472092,-0.93497223,0,0)" /><g
       transform="scale(1,-1)"
       style="font-style:normal;font-variant:normal;font-weight:normal;font-stretch:normal;font-size:26.39579201px;line-height:125%;font-family:serif;-inkscape-font-specification:serif;letter-spacing:0px;word-spacing:0px;fill:#000000;fill-opacity:1;stroke:none;stroke-width:1px;stroke-linecap:butt;stroke-linejoin:miter;stroke-opacity:1"
       id="text28632"><path
         d="m 262.56743,-287.78753 2.93859,0 0,1.63943 -9.01684,0 0,-1.63943 2.93859,0 0,-19.79684 -2.93859,0 0,-1.65489 9.01684,0 0,1.65489 -2.93859,0 0,19.79684 z"
         style="font-size:31.67494965px;fill:#002255;stroke:#002255"
         id="path4176"
         inkscape:connector-curvature="0" /></g><g
       transform="matrix(1.3197895,0,0,-1.3197895,-86.685146,-104.59334)"
       style="font-style:normal;font-variant:normal;font-weight:normal;font-stretch:normal;font-size:20px;line-height:125%;font-family:serif;-inkscape-font-specification:serif;letter-spacing:0px;word-spacing:0px;fill:#552200;fill-opacity:1;stroke:#552200;stroke-width:1px;stroke-linecap:butt;stroke-linejoin:miter;stroke-opacity:1"
       id="text28632-4"><path
         d="m 307.26444,-297.90981 3.67953,0 0,-22.30601 -7.7168,0 0,4.0957 -2.16211,0 0,-6.1875 23.3086,0 0,6.1875 -2.16211,0 0,-4.0957 -7.7168,0 0,22.30601 3.35742,0 0,1.81243 -10.58773,0"
         style="font-size:36px;fill:#552200;stroke:#552200"
         id="path28728"
         inkscape:connector-curvature="0"
         sodipodi:nodetypes="cccccccccccccccc" /></g><path
       style="fill:#552200;fill-rule:evenodd;stroke:#552200;stroke-width:2.4000001;stroke-linecap:round;stroke-linejoin:miter;stroke-miterlimit:4;stroke-dasharray:none;stroke-opacity:1"
       d="m 312.26776,319.28587 -6.45605,-1.97692"
       id="path28732"
       inkscape:connector-curvature="0"
       sodipodi:nodetypes="cc" /><path
       style="fill:#552200;fill-rule:evenodd;stroke:#552200;stroke-width:2.11166334;stroke-linecap:round;stroke-linejoin:miter;stroke-miterlimit:4;stroke-dasharray:none;stroke-opacity:1"
       d="m 312.38588,319.75834 -7.91401,4.60665"
       id="path28734"
       inkscape:connector-curvature="0" /><path
       style="fill:#552200;fill-rule:evenodd;stroke:#552200;stroke-width:2.11166334;stroke-linecap:round;stroke-linejoin:miter;stroke-miterlimit:4;stroke-dasharray:none;stroke-opacity:1"
       d="m 311.83815,313.71074 -2.95369,-7.78127"
       id="path28740"
       inkscape:connector-curvature="0"
       sodipodi:nodetypes="cc" /><path
       style="fill:#552200;fill-rule:evenodd;stroke:#552200;stroke-width:2.11166334;stroke-linecap:round;stroke-linejoin:miter;stroke-miterlimit:4;stroke-dasharray:none;stroke-opacity:1"
       d="m 312.71034,313.81552 2.42218,-5.59606"
       id="path28740-9"
       inkscape:connector-curvature="0"
       sodipodi:nodetypes="cc" /><path
       style="fill:#552200;fill-rule:evenodd;stroke:#552200;stroke-width:2.4000001;stroke-linecap:round;stroke-linejoin:miter;stroke-miterlimit:4;stroke-dasharray:none;stroke-opacity:1"
       d="m 339.53071,312.99535 -4.43019,-3.70613"
       id="path28740-2"
       inkscape:connector-curvature="0"
       sodipodi:nodetypes="cc" /><path
       style="fill:#552200;fill-rule:evenodd;stroke:#552200;stroke-width:2.4000001;stroke-linecap:round;stroke-linejoin:miter;stroke-miterlimit:4;stroke-dasharray:none;stroke-opacity:1"
       d="m 340.4029,313.10012 2.18593,-4.17861"
       id="path28740-9-5"
       inkscape:connector-curvature="0"
       sodipodi:nodetypes="cc" /><path
       style="fill:#552200;fill-rule:evenodd;stroke:#552200;stroke-width:2.4000001;stroke-linecap:round;stroke-linejoin:miter;stroke-miterlimit:4;stroke-dasharray:none;stroke-opacity:1"
       d="m 342.62785,320.43307 7.08921,-3.41845"
       id="path28734-0"
       inkscape:connector-curvature="0"
       sodipodi:nodetypes="cc" /><path
       style="fill:#552200;fill-rule:evenodd;stroke:#552200;stroke-width:2.4000001;stroke-linecap:round;stroke-linejoin:miter;stroke-miterlimit:4;stroke-dasharray:none;stroke-opacity:1"
       d="m 321.64457,312.73589 2.9213,4.83155"
       id="path28734-6-7"
       inkscape:connector-curvature="0"
       sodipodi:nodetypes="cc" /><path
       inkscape:connector-curvature="0"
       id="path4171-8-2-5-8"
       d="m 304.73814,325.35975 c 0,0 0.80702,1.44678 1.88636,1.44562 1.07939,-10e-4 3.37041,-2.34392 3.37041,-2.34392 0,0 -2.21739,-0.97927 -3.30877,-0.78334 -1.09137,0.19588 -1.948,1.68166 -1.948,1.68166 z"
       style="fill:#8dd35f;fill-opacity:1;fill-rule:evenodd;stroke:#445500;stroke-width:0.63999999;stroke-linecap:butt;stroke-linejoin:miter;stroke-miterlimit:4;stroke-dasharray:none;stroke-opacity:1" /><path
       inkscape:connector-curvature="0"
       id="path4171-8-2-5-1"
       d="m 322.52835,314.38435 c 0,0 -1.20426,-1.59831 -2.49576,-1.41901 -1.2915,0.17927 -3.64701,3.36059 -3.64701,3.36059 0,0 2.81501,0.80632 4.08876,0.39197 1.27375,-0.41435 2.05395,-2.3336 2.05395,-2.3336 z"
       style="fill:#8dd35f;fill-opacity:1;fill-rule:evenodd;stroke:#445500;stroke-width:0.63999999;stroke-linecap:butt;stroke-linejoin:miter;stroke-miterlimit:4;stroke-dasharray:none;stroke-opacity:1" /><path
       inkscape:connector-curvature="0"
       id="path4171-8-2-5-6"
       d="m 322.43825,313.1681 c 0,0 -0.32273,-1.51527 -1.28768,-1.81155 -0.96494,-0.29632 -3.65781,1.16639 -3.65781,1.16639 0,0 1.71197,1.48595 2.74133,1.61144 1.02931,0.12554 2.20414,-0.96634 2.20414,-0.96634 z"
       style="fill:#8dd35f;fill-opacity:1;fill-rule:evenodd;stroke:#445500;stroke-width:0.63999999;stroke-linecap:butt;stroke-linejoin:miter;stroke-miterlimit:4;stroke-dasharray:none;stroke-opacity:1" /><path
       inkscape:connector-curvature="0"
       id="path4171-8-2-5-3"
       d="m 308.0875,305.66523 c 0,0 0.94228,1.7655 2.24594,1.7883 1.3037,0.0228 4.12337,-2.75537 4.12337,-2.75537 0,0 -2.65622,-1.23246 -3.97876,-1.02029 -1.32256,0.2121 -2.39051,1.98742 -2.39051,1.98742 z"
       style="fill:#8dd35f;fill-opacity:1;fill-rule:evenodd;stroke:#445500;stroke-width:0.63999999;stroke-linecap:butt;stroke-linejoin:miter;stroke-miterlimit:4;stroke-dasharray:none;stroke-opacity:1" /><path
       inkscape:connector-curvature="0"
       id="path4171-8-2-5-0"
       d="m 314.27558,307.67352 c 0,0 0.31858,1.97571 1.54433,2.4202 1.22576,0.44455 4.79425,-1.2687 4.79425,-1.2687 0,0 -2.11275,-2.0275 -3.4326,-2.25588 -1.31984,-0.2284 -2.90595,1.10445 -2.90595,1.10445 z"
       style="fill:#8dd35f;fill-opacity:1;fill-rule:evenodd;stroke:#445500;stroke-width:0.63999999;stroke-linecap:butt;stroke-linejoin:miter;stroke-miterlimit:4;stroke-dasharray:none;stroke-opacity:1" /><path
       inkscape:connector-curvature="0"
       id="path4171-8-2-5-5"
       d="m 307.09982,317.76993 c 0,0 0.56626,-1.91944 -0.34717,-2.8499 -0.91341,-0.93047 -4.87186,-0.92703 -4.87186,-0.92703 0,0 1.02946,2.74128 2.12113,3.51744 1.09163,0.7762 3.09791,0.25939 3.09791,0.25939 z"
       style="fill:#8dd35f;fill-opacity:1;fill-rule:evenodd;stroke:#445500;stroke-width:0.63999999;stroke-linecap:butt;stroke-linejoin:miter;stroke-miterlimit:4;stroke-dasharray:none;stroke-opacity:1" /><path
       inkscape:connector-curvature="0"
       id="path4171-8-2-5-68"
       d="m 306.18556,324.49688 c 0,0 -0.83709,-1.81773 -2.13719,-1.91698 -1.3001,-0.0992 -4.27788,2.50881 -4.27788,2.50881 0,0 2.57935,1.38613 3.91208,1.2519 1.3327,-0.13417 2.50295,-1.84379 2.50295,-1.84379 z"
       style="fill:#8dd35f;fill-opacity:1;fill-rule:evenodd;stroke:#445500;stroke-width:0.63999999;stroke-linecap:butt;stroke-linejoin:miter;stroke-miterlimit:4;stroke-dasharray:none;stroke-opacity:1" /><path
       inkscape:connector-curvature="0"
       id="path4171-8-2-5-682"
       d="m 346.94915,316.7023 c 0,0 -0.0241,2.00107 1.10738,2.64877 1.1316,0.64775 4.94064,-0.4295 4.94064,-0.4295 0,0 -1.73459,-2.35914 -2.99591,-2.81 -1.26128,-0.4509 -3.05208,0.59085 -3.05208,0.59085 z"
       style="fill:#8dd35f;fill-opacity:1;fill-rule:evenodd;stroke:#445500;stroke-width:0.63999999;stroke-linecap:butt;stroke-linejoin:miter;stroke-miterlimit:4;stroke-dasharray:none;stroke-opacity:1" /><path
       inkscape:connector-curvature="0"
       id="path4171-8-2-5-7"
       d="m 342.02457,308.4494 c 0,0 -0.19575,1.67394 0.69529,2.31564 0.89101,0.64176 4.17584,0.0734 4.17584,0.0734 0,0 -1.24606,-2.12804 -2.26296,-2.61627 -1.01689,-0.48823 -2.60817,0.22733 -2.60817,0.22733 z"
       style="fill:#8dd35f;fill-opacity:1;fill-rule:evenodd;stroke:#445500;stroke-width:0.63999999;stroke-linecap:butt;stroke-linejoin:miter;stroke-miterlimit:4;stroke-dasharray:none;stroke-opacity:1" /><path
       inkscape:connector-curvature="0"
       id="path4171-8-2-5-89"
       d="m 335.41527,309.53266 c 0,0 -0.0815,-1.99957 -1.2458,-2.58657 -1.16426,-0.58706 -4.91103,0.69002 -4.91103,0.69002 0,0 1.85685,2.2642 3.14022,2.64777 1.28332,0.38363 3.0166,-0.7513 3.0166,-0.7513 z"
       style="fill:#8dd35f;fill-opacity:1;fill-rule:evenodd;stroke:#445500;stroke-width:0.63999999;stroke-linecap:butt;stroke-linejoin:miter;stroke-miterlimit:4;stroke-dasharray:none;stroke-opacity:1" /><path
       inkscape:connector-curvature="0"
       id="path4171-8-2-5-893"
       d="m 327.56028,318.6877 c 0,0 1.27602,1.54164 2.55795,1.30349 1.28198,-0.23806 3.48971,-3.52365 3.48971,-3.52365 0,0 -2.84889,-0.67693 -4.1024,-0.20477 -1.25348,0.47212 -1.94521,2.42499 -1.94521,2.42499 z"
       style="fill:#8dd35f;fill-opacity:1;fill-rule:evenodd;stroke:#445500;stroke-width:0.63999999;stroke-linecap:butt;stroke-linejoin:miter;stroke-miterlimit:4;stroke-dasharray:none;stroke-opacity:1" /><path
       inkscape:connector-curvature="0"
       id="path4171-8-2-5-7-8"
       d="m 341.91116,308.35141 c 0,0 1.05991,1.69748 2.36212,1.63179 1.30223,-0.0655 3.92689,-3.02883 3.92689,-3.02883 0,0 -2.73372,-1.04939 -4.03884,-0.74797 -1.30511,0.3014 -2.25012,2.14508 -2.25012,2.14508 z"
       style="fill:#8dd35f;fill-opacity:1;fill-rule:evenodd;stroke:#445500;stroke-width:0.63999999;stroke-linecap:butt;stroke-linejoin:miter;stroke-miterlimit:4;stroke-dasharray:none;stroke-opacity:1" /><path
       inkscape:connector-curvature="0"
       id="path4171-8-2-5-3-5"
       d="m 310.10097,307.00055 c 0,0 0.37933,-1.96494 -0.61922,-2.80335 -0.99852,-0.83849 -4.93834,-0.45495 -4.93834,-0.45495 0,0 1.28791,2.62976 2.44907,3.29752 1.16112,0.66777 3.10852,-0.0394 3.10852,-0.0394 z"
       style="fill:#8dd35f;fill-opacity:1;fill-rule:evenodd;stroke:#445500;stroke-width:0.63999999;stroke-linecap:butt;stroke-linejoin:miter;stroke-miterlimit:4;stroke-dasharray:none;stroke-opacity:1" /></g></svg>